<svg version="1.1" id="Layer_1" xmlns="http://www.w3.org/2000/svg" xmlns:xlink="http://www.w3.org/1999/xlink" x="0px" y="0px" viewBox="0 0 500 500" style="width: 223px;" xml:space="preserve" data-imageid="marketing-campaign-1-97" imageName="Marketing Campaign 1" class="illustrations_image">
<style type="text/css">
	.st0_marketing-campaign-1-97{fill:#2075AF;}
	.st1_marketing-campaign-1-97{fill:url(#SVGID_1_);}
	.st2_marketing-campaign-1-97{fill:url(#SVGID_00000060730951186729103220000000678725012246662318_);}
	.st3_marketing-campaign-1-97{fill:url(#SVGID_00000085951723702301008300000009982198898509044407_);}
	.st4_marketing-campaign-1-97{fill:url(#SVGID_00000128459723527933463970000015464930689819886003_);}
	.st5_marketing-campaign-1-97{fill:#311E69;}
	.st6_marketing-campaign-1-97{fill:#5F66FC;}
	.st7_marketing-campaign-1-97{fill:#68E1FD;}
	.st8_marketing-campaign-1-97{fill:#008404;}
	.st9_marketing-campaign-1-97{fill:#F9847F;}
	.st10_marketing-campaign-1-97{fill:#FCBD4C;}
	.st11_marketing-campaign-1-97{fill:#FFFFFF;}
	.st12_marketing-campaign-1-97{fill:#8FDB5E;}
	.st13_marketing-campaign-1-97{fill:#E05E00;}
</style>
<g id="background_marketing-campaign-1-97">
	<path class="st0_marketing-campaign-1-97" d="M241.5,415.5L17.5,283.1c-7.1-4-13.2-10.6-6.3-14.9L236,138.7c3.4-2.1,8.5-3.5,11.9-1.5L483,273.7&#10;&#9;&#9;c7.1,4.1,8.4,15.7,1.3,19.8L271,415.2C261.9,420.5,250.7,420.6,241.5,415.5z"/>
	
		<linearGradient id="SVGID_1_-marketing-campaign-1-97" gradientUnits="userSpaceOnUse" x1="199.1424" y1="197.5269" x2="164.0024" y2="170.6569" gradientTransform="matrix(1 0 0 -1 0 502)">
		<stop offset="0" style="stop-color:#311E69"/>
		<stop offset="1" style="stop-color:#2075AF"/>
	</linearGradient>
	<polygon class="st1_marketing-campaign-1-97" points="279.7,274.6 162.6,344.2 130.7,325 247.8,255 &#9;"/>
	
		<linearGradient id="SVGID_00000026136967341326210390000003609922427399577488_-marketing-campaign-1-97" gradientUnits="userSpaceOnUse" x1="247.5733" y1="145.2451" x2="227.4933" y2="118.9651" gradientTransform="matrix(1 0 0 -1 0 502)">
		<stop offset="0" style="stop-color:#311E69"/>
		<stop offset="1" style="stop-color:#2075AF"/>
	</linearGradient>
	<polygon style="fill:url(#SVGID_00000026136967341326210390000003609922427399577488_);" points="289,385.4 250.3,409.8 &#10;&#9;&#9;178.1,364.8 242.1,319.6 &#9;"/>
	
		<linearGradient id="SVGID_00000052075335715876982330000000797853922805167030_-marketing-campaign-1-97" gradientUnits="userSpaceOnUse" x1="151.1825" y1="207.2668" x2="116.0525" y2="180.3968" gradientTransform="matrix(1 0 0 -1 0 502)">
		<stop offset="0" style="stop-color:#311E69"/>
		<stop offset="1" style="stop-color:#2075AF"/>
	</linearGradient>
	<polygon style="fill:url(#SVGID_00000052075335715876982330000000797853922805167030_);" points="231.8,264.9 114.7,334.5 &#10;&#9;&#9;82.7,315.3 199.9,245.2 &#9;"/>
	
		<linearGradient id="SVGID_00000042728158096066804320000005522599145853449618_-marketing-campaign-1-97" gradientUnits="userSpaceOnUse" x1="468.9124" y1="239.4156" x2="364.9623" y2="183.4057" gradientTransform="matrix(1 0 0 -1 0 502)">
		<stop offset="0" style="stop-color:#311E69"/>
		<stop offset="1" style="stop-color:#2075AF"/>
	</linearGradient>
	<polygon style="fill:url(#SVGID_00000042728158096066804320000005522599145853449618_);" points="443.5,286 323.8,357.1 &#10;&#9;&#9;304.2,338.7 422.5,271.3 &#9;"/>
</g>
<g id="monitor_marketing-campaign-1-97">
	<path class="st5_marketing-campaign-1-97" d="M216.2,276l37.2,14c0,0,1.6,1,0.6,3.4c-0.6,1.4-3.6,3.4-3.6,3.4l-32.1,18.6c-1.8,0.8-3.6,1.3-5.5,1.5&#10;&#9;&#9;c-2.6,0.1-6.9-1.9-6.9-1.9l-29.9-17.3L216.2,276z"/>
	<path class="st5_marketing-campaign-1-97" d="M216.7,274.2l35.5,14.5c0,0,2.5,1.4,1.8,3.2c-0.7,1.4-1.8,2.5-3.2,3.2l-32.2,18.5c-1.8,0.8-3.6,1.3-5.5,1.5&#10;&#9;&#9;c-2.6,0.1-6.9-1.9-6.9-1.9L178,297.2L216.7,274.2z"/>
	<path class="st6_marketing-campaign-1-97" d="M132.7,323.1c-1.4,0.6-3,0.2-4-1c0,0-0.7-0.1-0.7-3.2V177.3c0.1-2.5,1.2-4.8,3.1-6.4&#10;&#9;&#9;c3.1-2.5,10.8-6.6,10.8-6.6l157.5-90.9l1.8-0.9c1.2-0.6,2.7-0.2,3.5,0.9c0.5,0.8,0.7,1.7,0.8,2.6c0.1,1.5,0,15.8,0,15.8v127.5&#10;&#9;&#9;c0,2.5-1,4.8-2.9,6.5L132.7,323.1z"/>
	<path class="st7_marketing-campaign-1-97 targetColor" d="M130.9,301.7V179.4c0-4.1,0.6-6.3,3.7-8l166.1-96.2c1.6-0.9,3.5-0.1,3.5,1.8l-0.4,125.7L130.9,301.7z" style="fill: rgb(35, 193, 107);"/>
	<path class="st8_marketing-campaign-1-97" d="M333.5,96.4v21.5c0,2.1-1.1,4-2.9,5l-74,43.1c-2.8,1.6-6.3,0.7-7.9-2.1c-0.5-0.8-0.8-1.8-0.8-2.7l-0.6-21.2&#10;&#9;&#9;c-0.1-2.1,1-4.1,2.9-5.1l74.6-43.4c2.8-1.6,6.3-0.6,7.9,2.1C333.3,94.4,333.5,95.4,333.5,96.4z"/>
	<path class="st9_marketing-campaign-1-97" d="M312.4,156v21.5c0,2.1-1.1,4-2.9,5l-74,43.1c-2.8,1.6-6.3,0.7-7.9-2.1c-0.5-0.8-0.8-1.8-0.8-2.8l-0.6-21.2&#10;&#9;&#9;c-0.1-2.1,1-4.1,2.9-5.1l74.6-43.4c2.8-1.6,6.3-0.7,7.9,2.1C312.2,154,312.4,155,312.4,156z"/>
	<path class="st10_marketing-campaign-1-97" d="M114.1,246.1l51.7-28.4c2-1.1,3.3-3.2,3.3-5.6v-94.8c0-3.5-2.8-6.3-6.3-6.3c-1.1,0-2.2,0.3-3.2,0.8&#10;&#9;&#9;l-51.7,29.9c-2,1.1-3.2,3.2-3.2,5.5v93.3c0,3.5,2.8,6.3,6.3,6.3C112.1,246.8,113.1,246.6,114.1,246.1z"/>
	
		<ellipse transform="matrix(0.2302 -0.9731 0.9731 0.2302 -21.7439 333.4361)" class="st11_marketing-campaign-1-97" cx="199.9" cy="180.5" rx="27.6" ry="16.6"/>
</g>
<g id="plant_marketing-campaign-1-97">
	<path class="st7_marketing-campaign-1-97 targetColor" d="M414.6,238.6c0,0,1.2,52.9,19.3,54.1s19.3-54.1,19.3-54.1" style="fill: rgb(35, 193, 107);"/>
	<path class="st7_marketing-campaign-1-97 targetColor" d="M414.6,238.6c0,0,1.2,52.9,19.3,54.1s19.3-54.1,19.3-54.1" style="fill: rgb(35, 193, 107);"/>
	<ellipse class="st5_marketing-campaign-1-97" cx="433.9" cy="238.6" rx="19.3" ry="10"/>
	<path class="st5_marketing-campaign-1-97" d="M428.6,245.4c-3.4-21-9.5-41.5-18.1-61c-0.7-1.6-3-0.2-2.3,1.4c8.5,19.3,14.4,39.6,17.8,60.4&#10;&#9;&#9;C426.3,247.9,428.9,247.1,428.6,245.4z"/>
	<path class="st5_marketing-campaign-1-97" d="M439.6,248.8c-1.3-25.6-3.6-51.1-6.9-76.5c-0.2-1.7-2.9-1.7-2.7,0c3.3,25.3,5.6,50.8,6.9,76.4&#10;&#9;&#9;C437.8,248.7,438.7,248.7,439.6,248.8z"/>
	<path class="st12_marketing-campaign-1-97" d="M404.6,179.5c-3.2-0.8-6.5-0.6-9.5,0.8c-2.2,1-6.7,3.7-5.8,6.6s6.3,2.5,8.5,1.8c3.4-1.1,6.1-3.7,7.5-6.9&#10;&#9;&#9;c0-0.1,0.1-0.2,0.1-0.3c0.4-0.6,0.2-1.4-0.4-1.8C404.8,179.6,404.7,179.5,404.6,179.5z"/>
	<path class="st12_marketing-campaign-1-97" d="M409.7,176.3c-0.6-3.5-0.8-7.5-3.2-10.3c-1.8-2.1-5-3.4-7.6-1.8s-2,5.3-0.6,7.5c2.1,3.2,5.8,4.5,8.7,6.7&#10;&#9;&#9;c0.5,0.4,1.2,0.3,1.6-0.2c0.1-0.1,0.2-0.2,0.2-0.4C409.4,177.6,409.8,177,409.7,176.3z M405.6,169.7c-0.6-1-1.3-1.9-2.2-2.7&#10;&#9;&#9;l-0.1-0.3C404.3,167.5,405.1,168.5,405.6,169.7L405.6,169.7z"/>
	<path class="st12_marketing-campaign-1-97" d="M416.7,170.8c-4.4-2-5.1,5.5-5.2,8c-0.1,0.6,0.3,1.1,0.9,1.2c0.5,0.5,1.4,0.5,1.9,0c1.5-1.3,3.3-2.6,3.8-4.6&#10;&#9;&#9;C418.3,174,418.3,171.6,416.7,170.8z"/>
	<path class="st12_marketing-campaign-1-97" d="M434,154.9c-0.9-3-4-5.7-7.2-4.3s-2.7,5.9-2.1,8.9s2.3,8.1,5.7,8.7c0.2,0,0.5,0,0.7-0.1&#10;&#9;&#9;c0.7,0.4,1.5,0.2,2-0.4c0.1-0.1,0.1-0.2,0.1-0.3C434.5,163.5,435.2,158.8,434,154.9z M431.1,162.9&#10;&#9;&#9;C431.1,162.9,431.1,162.9,431.1,162.9c0.1-0.6,0.1-1,0.1-1.5c0.1,0.7,0.1,1.4,0.1,2.2C431.2,163.3,431.2,163.1,431.1,162.9&#10;&#9;&#9;L431.1,162.9z"/>
	<path class="st12_marketing-campaign-1-97" d="M444.2,165.2c-3.2,0.9-6.5,2.3-7.9,5.6c-0.2,0.5-0.1,1.1,0.2,1.5c0.1,3.1,6.4,1.5,8.2,1.2&#10;&#9;&#9;c2.8-0.6,6.2-1.9,6.1-5.4C450.6,164.3,446.9,164.4,444.2,165.2z M448,169.1c0-0.2-0.1-0.4-0.2-0.6c0.1-0.2,0.2-0.4,0.4-0.6&#10;&#9;&#9;C448.4,168.3,448.3,168.8,448,169.1L448,169.1z"/>
	<path class="st12_marketing-campaign-1-97" d="M427.2,168.9c-1.2-1.7-6-7-8.1-3.8c-0.8,1.5-0.4,3.3,0.8,4.4c1.4,1.2,3.2,2,5.1,2.2c0.7,0.1,1.4-0.3,1.6-0.9&#10;&#9;&#9;c0.6-0.2,1-0.8,0.8-1.4C427.4,169.2,427.4,169,427.2,168.9z M421.7,167.4L421.7,167.4c0.6,0.4,1.2,0.8,1.4,0.9l-0.2-0.1&#10;&#9;&#9;C422.4,168,422,167.7,421.7,167.4z"/>
</g>
<g id="character_1_marketing-campaign-1-97">
	<polyline class="st13_marketing-campaign-1-97" points="257.2,322.2 230.4,338.9 230.1,345.8 258.4,327 &#9;"/>
	<path class="st13_marketing-campaign-1-97" d="M257.6,310.9l14.4,40.5l-2,1.4c-0.6-0.2-1.1-0.5-1.6-0.9c-0.7-0.4-18-42.4-18-42.4"/>
	<polyline class="st13_marketing-campaign-1-97" points="230.5,304.7 224.5,329.7 228.6,378.5 230.5,379.6 232.8,377.9 231.1,329.2 236.4,304.3 &#9;"/>
	<path class="st10_marketing-campaign-1-97" d="M261,299.6c0,0,1.3,5.4-0.4,8.5s-7.1-4-7.1-4"/>
	<polyline class="st13_marketing-campaign-1-97" points="233,271.9 235.5,291.6 230.5,294.7 228,273.6 &#9;"/>
	<polyline class="st13_marketing-campaign-1-97" points="201.5,288.9 199.9,315.9 199.2,355.4 201.6,356.6 203.7,355 205.9,316 207.4,288.4 &#9;"/>
	<path class="st10_marketing-campaign-1-97" d="M205.2,291.9c-1.4,0.5-4.7-1.5-5.8-2.9c-5.7-7.7-5-18.8,3.9-24.6c3.9-2.6,8-5.1,11.9-7.7&#10;&#9;&#9;c3.5-2.3,7.2-4.4,10.5-6.9c0.4-0.3,0.9-0.6,1.4-0.9c1.9-0.7,4.1-0.1,5.4,1.4"/>
	<path class="st10_marketing-campaign-1-97" d="M204.8,291.6c-2.5,0.1-4.1-3.1-5-5c-2.4-5.2-3.5-15.2,2.3-18.7c0.2-0.1,0.4-0.4,0.4-0.6l11.1-7.5l8.6-5.8&#10;&#9;&#9;c1.5-1,2.9-2.2,4.4-3.2s3-2.2,4.8-1.3c2,1,2.4,3.1,2.8,5.1c1.1,4.6,1.2,9.3,0.3,13.9c-0.7,3.1-2.9,5.3-5.5,7l-8,5.4l-14.8,10&#10;&#9;&#9;c-0.2,0.2-0.5,0.3-0.8,0.4C205.3,291.5,205,291.6,204.8,291.6z"/>
	<path class="st10_marketing-campaign-1-97" d="M204.7,313.1l-0.4,0.3c-1.3,0.7-2.4,1.7-3.3,2.9c-2.1,3.1,0.4,6.3,2.9,8.2c6.7,5.1,16.5,9,24.9,6.4&#10;&#9;&#9;c7.3-2.3,13.9-6.3,20.2-10.7c5.1-3.6,11.5-7.9,12.4-14.6c0.3-3-0.9-6-3.1-8.1c-14.5-14.5-32.3,1.4-45,9.9L204.7,313.1z"/>
	<path class="st10_marketing-campaign-1-97" d="M200.1,314.1c-0.1,0.1-0.4,4.4,0.1,5.7c1,2,2.5,3.8,4.2,5.2c1.6,1.1,0.1-7.5,0.1-7.5"/>
	<path class="st10_marketing-campaign-1-97" d="M204.4,309.4l-0.4,0.3c-1.3,0.7-2.4,1.7-3.3,2.9c-2.1,3.1,0.4,6.3,2.9,8.2c6.7,5.1,16.5,9,24.9,6.3&#10;&#9;&#9;c7.3-2.3,14-6.3,20.2-10.7c5.1-3.6,11.5-7.9,12.4-14.7c0.3-3-0.9-6-3.1-8.1c-14.5-14.5-32.3,1.4-45,9.9L204.4,309.4z"/>
	<path class="st13_marketing-campaign-1-97" d="M290.9,379.7c-1.8-1.2-3.8-2.2-5.8-3c-2.1-0.7-8.5-7.2-9-7.9s-1.7-3.9-2.8-4s-3.4,1.3-3.4,1.3&#10;&#9;&#9;s-3.6-3.2-6.4-1.9c0,0-2.6,1.6-2,9.3c-0.1,0.1-0.2,0.1-0.2,0.2c-0.1,1.2-0.1,2.4,0,3.6c1.2,1.7,2.8,3,4.7,3.8&#10;&#9;&#9;c2.4,1.1,7.8,5,11.2,5.6s9.8-0.2,11.9-1.2c1.4-0.6,2.3-1.9,2.4-3.4C291.6,381.2,291.4,380.4,290.9,379.7z"/>
	<path class="st10_marketing-campaign-1-97" d="M270.5,365.7c0,0-4.2-3-7.1-1.6s-2,8.2-2,8.2s0.3,3.9,5.2,5.9s4.3,4,10.6,5.5s12.8-0.5,13.9-2.5&#10;&#9;&#9;s-2.9-3.3-3.2-3.5s-6.1-3.2-7.5-4.9s-3.8-4.4-4.7-5.8s-1.3-2.7-2.8-2.5C272,364.7,271.2,365.1,270.5,365.7z"/>
	<path class="st13_marketing-campaign-1-97" d="M282.7,374.5L282.7,374.5c-0.8-0.1-1.7-0.1-2.5-0.1c0.1-0.5,0.2-1,0.4-1.5c-0.2-0.2-0.4-0.4-0.6-0.6l-0.1,0.1&#10;&#9;&#9;c-0.6-0.1-1.2-0.1-1.8,0l0.5-1c0-0.1,0-0.2,0-0.3c0-0.1-0.1-0.3-0.3-0.3c-0.1,0-0.2,0-0.2,0c-0.7-0.1-1.4-0.2-2.1-0.2&#10;&#9;&#9;c0.2-0.4,0.4-0.7,0.6-1.1s-0.5-0.8-0.8-0.4c-0.3,0.5-0.6,1-0.8,1.5c-1.3,0-2.5,0.1-3.8,0.5c-0.5,0.2-0.2,1,0.3,0.8&#10;&#9;&#9;c1-0.3,2-0.5,3.1-0.5c-0.3,0.7-0.5,1.5-0.7,2.2c-0.4,0.3,0.1,0.9,0.5,0.7c0.7-0.4,1.4-0.7,2.2-0.8c-0.2,0.4-0.3,0.8-0.5,1.2&#10;&#9;&#9;c-0.1,0.2-0.2,0.4-0.2,0.6c0,0.1,0,0.1-0.1,0.1l0,0c-0.2,0.1-0.3,0.4-0.1,0.6c0.1,0.2,0.3,0.2,0.5,0.2c0.9-0.3,1.9-0.5,2.9-0.7&#10;&#9;&#9;c-0.2,0.7-0.4,1.4-0.6,2.1c0,0.2,0.1,0.5,0.4,0.5c0.1,0,0.2,0,0.3-0.1c1.2-0.9,2.4-1.7,3.7-2.5h0.1c0.2,0,0.4-0.1,0.5-0.3&#10;&#9;&#9;c0,0,0,0,0,0C283.2,374.9,283,374.7,282.7,374.5z M274.9,373c0.2-0.6,0.4-1.2,0.6-1.7c0.7,0,1.3,0.1,2,0.2l-0.4,0.9&#10;&#9;&#9;C276.3,372.5,275.6,372.7,274.9,373z M277,374.9c0.1-0.3,0.2-0.7,0.3-0.9l0.4-0.9c0.7-0.1,1.3-0.1,2,0c-0.1,0.5-0.2,0.9-0.3,1.3&#10;&#9;&#9;C278.5,374.5,277.8,374.7,277,374.9L277,374.9z M279.7,376.4c0.1-0.4,0.2-0.8,0.3-1.2c0.5,0,1,0,1.5,0&#10;&#9;&#9;C280.8,375.6,280.2,376,279.7,376.4L279.7,376.4z"/>
	<path class="st13_marketing-campaign-1-97" d="M277.1,384.1c-1.8-1.2-3.8-2.2-5.8-3c-2.1-0.7-8.5-7.2-9-7.9s-1.7-3.9-2.8-4s-3.4,1.3-3.4,1.3&#10;&#9;&#9;s-3.6-3.2-6.4-1.9c0,0-2.6,1.6-2,9.2c-0.1,0.1-0.2,0.1-0.2,0.2c-0.1,1.2-0.1,2.4,0,3.6c1.2,1.7,2.8,3,4.7,3.7&#10;&#9;&#9;c2.4,1.1,7.8,5,11.2,5.6s9.8-0.2,11.9-1.2c1.4-0.6,2.3-1.9,2.4-3.4C277.8,385.6,277.6,384.8,277.1,384.1z"/>
	<path class="st10_marketing-campaign-1-97" d="M256.8,370.1c0,0-4.1-3-7-1.5s-2,8.2-2,8.2s0.3,3.9,5.2,5.9s4.3,4,10.6,5.5s12.8-0.5,13.9-2.5&#10;&#9;&#9;s-2.9-3.3-3.2-3.5s-6.1-3.2-7.5-4.8s-3.8-4.4-4.7-5.8s-1.3-2.7-2.8-2.4C258.3,369.2,257.5,369.5,256.8,370.1z"/>
	<path class="st13_marketing-campaign-1-97" d="M269,378.9L269,378.9c-0.8-0.1-1.7-0.1-2.5-0.1c0.1-0.5,0.2-1,0.4-1.5c-0.2-0.2-0.4-0.4-0.6-0.6l-0.1,0&#10;&#9;&#9;c-0.6-0.1-1.2-0.1-1.8,0c0.1-0.3,0.3-0.7,0.5-1c0-0.1,0-0.2,0-0.3c0-0.1-0.1-0.3-0.3-0.3c-0.1,0-0.2,0-0.2,0&#10;&#9;&#9;c-0.7-0.1-1.4-0.1-2.1-0.2c0.2-0.4,0.4-0.7,0.6-1.1s-0.5-0.8-0.8-0.4c-0.3,0.5-0.6,1-0.8,1.5c-1.3,0-2.5,0.1-3.8,0.5&#10;&#9;&#9;c-0.5,0.2-0.2,1,0.3,0.8c1-0.3,2-0.5,3.1-0.5c-0.3,0.7-0.5,1.5-0.7,2.2c-0.4,0.3,0.1,0.9,0.5,0.7c0.7-0.4,1.4-0.7,2.2-0.8&#10;&#9;&#9;c-0.2,0.4-0.3,0.8-0.5,1.2c-0.1,0.2-0.2,0.4-0.2,0.6c0,0.1,0,0.1-0.1,0.2l0,0c-0.2,0.1-0.3,0.4-0.1,0.6c0.1,0.2,0.3,0.2,0.5,0.2&#10;&#9;&#9;c0.9-0.3,1.9-0.5,2.9-0.7c-0.2,0.7-0.4,1.4-0.6,2.1c0,0.2,0.1,0.5,0.3,0.5c0.1,0,0.2,0,0.3-0.1c1.2-0.9,2.4-1.7,3.7-2.5h0.1&#10;&#9;&#9;c0.2,0,0.5-0.1,0.5-0.4c0,0,0,0,0,0C269.5,379.3,269.2,379.1,269,378.9z M261.2,377.4c0.2-0.6,0.4-1.2,0.6-1.7c0.7,0,1.3,0.1,2,0.1&#10;&#9;&#9;c-0.1,0.3-0.3,0.6-0.4,0.9C262.6,376.9,261.8,377.1,261.2,377.4L261.2,377.4z M263.3,379.3c0.1-0.3,0.2-0.7,0.3-0.9l0.4-0.8&#10;&#9;&#9;c0.7-0.1,1.3-0.1,2,0c-0.1,0.4-0.2,0.9-0.3,1.3C264.8,378.9,264,379.1,263.3,379.3L263.3,379.3z M265.9,380.8&#10;&#9;&#9;c0.1-0.4,0.2-0.8,0.3-1.2c0.5,0,1,0,1.5,0C267.1,380,266.5,380.4,265.9,380.8L265.9,380.8z"/>
	<path class="st7_marketing-campaign-1-97 targetColor" d="M242,288.5c1.1,1.9,28.6,24.2,33.2,31.7s0.5,45.1,0.5,45.1s-7.8,4.2-14.4,0.7c0,0-2.6-30.7-4.6-32.7&#10;&#9;&#9;s-25.7-18.5-28.2-22S227,292,227,292" style="fill: rgb(35, 193, 107);"/>
	<path class="st7_marketing-campaign-1-97 targetColor" d="M232.3,290.1c1.1,1.9,25.7,28.8,30.3,36.2s0.5,45.1,0.5,45.1s-7.8,4.2-14.4,0.7c0,0-2.6-30.7-4.6-32.7&#10;&#9;&#9;s-26-18.3-28.2-22c-6.9-11.6-1.5-27.6-1.5-27.6" style="fill: rgb(35, 193, 107);"/>
	<path class="st12_marketing-campaign-1-97" d="M242.8,273.8c0.1-4.7,0.9-9.3,0.9-13.9c0.1-10.5-6.4-16.6-15.9-17.5c-5.1,3.3-9.7,7.4-13.6,12.1&#10;&#9;&#9;c-3.9,5.1-2.2,25.1-2.2,25.1c1.2,5.5,1.1,9.7,1.5,12.7c7.6,6.7,20.2,2.2,28.4-3.7C243.1,283.7,242.8,278.7,242.8,273.8z"/>
	<path class="st9_marketing-campaign-1-97" d="M237.7,229.8c0,0,0,14.2-3.6,15.1s-7.6-0.6-9-2.3s-4.6-10.4-3.5-12.1S235.5,227.3,237.7,229.8z"/>
	<path class="st9_marketing-campaign-1-97" d="M224.3,240.6v7c0,0,2.3,1.6,8.4-0.9l0.6-4.1"/>
	<path class="st5_marketing-campaign-1-97" d="M239.7,224.6c-0.8-0.3-1.7-0.3-2.5-0.2c-0.4-1.2-1.1-2.3-2.1-3c-1.9-1.1-4.2-1.1-6.1,0&#10;&#9;&#9;c-0.3,0.2-0.6,0.4-0.9,0.7c-1.2-0.9-2.7-1.3-4.1-1.1c-1.7,0.3-3.1,1.5-3.5,3.2c-0.1,0.5-0.1,0.9-0.1,1.4c-0.2,0-0.4,0.1-0.6,0.1&#10;&#9;&#9;c-1.5,0.4-2.6,1.6-2.9,3.1c-0.3,1.3,0,2.6,0.8,3.6c-0.9,1.1-1.1,2.6-0.5,3.9c0.6,1.4,2,2.2,3.4,2.3c-0.2,0.7-0.2,1.4,0,2.1&#10;&#9;&#9;c0.9,1.6,2.9,2.2,4.9,2.5c0-0.9,0-1.8,0-2.7c0-0.1,0-0.2,0-0.2c-0.7-0.5-1.3-1.1-1.7-1.9c-0.7-0.9-1.2-2.3-0.3-3.2s2.4-0.5,3.2,0.5&#10;&#9;&#9;c0.2-0.5,0.4-0.9,0.6-1.4l0,0c0.7-2.3,3.1-2.7,5.3-2.9c3.5,1.5,8.5,2.5,9.6-1.9C242.5,227.6,241.6,225.4,239.7,224.6z"/>
	<path class="st5_marketing-campaign-1-97" d="M227.2,234.4c0,0-0.3,4.2,0.7,4.9s3.4,0.9,5.1,0.6s3.4-0.2,4-0.3c0,0-0.9,4.4-2.2,5.7s-5.2,0.3-6.1-0.2&#10;&#9;&#9;s-2.6-4.4-2.6-4.4l-0.3-6.1L227.2,234.4z"/>
	<path class="st9_marketing-campaign-1-97" d="M269.1,281.2c0.4,0,9.9,2.7,9.9,2.7l8.3,4.8c-0.2,0.4-0.7,0.7-1.1,0.8c0,0,0.9,0.6,0.2,1.2&#10;&#9;&#9;c-0.4,0.3-1,0.4-1.4,0.1c-0.4,0.6-1,0.9-1.7,1c-1,0-6.9-3.7-7.3-3.2s2.9,1.9,2.2,3s-3.6-0.5-4.7-1.2s-6.1-4.9-6.1-4.9"/>
	<path class="st8_marketing-campaign-1-97" d="M242.4,252.1c0,0,6.8,16.5,8.9,18.3s20.4,9.8,20.4,9.8s0.6,6.6-5.4,9.1c0,0-17.6-2.4-23.9-10.2"/>
	<path class="st7_marketing-campaign-1-97 targetColor" d="M267,258.4c0,0-26.8-1.7-28.5-0.9s-2.4,3.6-1.8,7.6s13.4,19.9,13.4,19.9" style="fill: rgb(35, 193, 107);"/>
	<path class="st9_marketing-campaign-1-97" d="M274.9,267c-0.1-0.3-2.8-12.8-15.2-7.5c-11.2,4.8-11.5,19.1-10.8,22.6c0.6,2.8,3.5,6.7,9.1,8.1"/>
	
		<ellipse transform="matrix(0.3975 -0.9176 0.9176 0.3975 -93.7952 407.1894)" class="st9_marketing-campaign-1-97" cx="263.2" cy="275" rx="16.1" ry="11.4"/>
	<path class="st11_marketing-campaign-1-97" d="M251.1,275.8l12.1,3.2l2.6-5.6l-11-6.8C254.9,266.4,251.8,271.3,251.1,275.8z"/>
	
		<ellipse transform="matrix(0.4531 -0.8915 0.8915 0.4531 -101.446 386.7154)" class="st10_marketing-campaign-1-97" cx="264.4" cy="276" rx="3.1" ry="2.5"/>
	<path class="st7_marketing-campaign-1-97 targetColor" d="M241.8,301.9V259c0-1-0.8-1.8-1.8-1.8h-1.8c-1,0-1.8,0.8-1.8,1.8v42c0,1.2,0.7,2.4,1.8,2.9h0.1&#10;&#9;&#9;c1.1,0.6,2.6,0.2,3.2-1C241.7,302.6,241.8,302.3,241.8,301.9z" style="fill: rgb(35, 193, 107);"/>
	<path class="st10_marketing-campaign-1-97" d="M289.1,259.4l-5.5,5.5c-1.9,1.9,1,4.8,2.9,2.9l5.5-5.5C294,260.4,291,257.5,289.1,259.4z"/>
	<path class="st10_marketing-campaign-1-97" d="M300.2,274.4h-10.4c-2.7,0-2.7,4.1,0,4.1h10.4C302.9,278.5,302.9,274.4,300.2,274.4z"/>
	<path class="st10_marketing-campaign-1-97" d="M290.7,289.8l-4.9-4.7c-1.9-1.8-4.9,1.1-2.9,2.9l4.9,4.7C289.7,294.6,292.6,291.6,290.7,289.8z"/>
	<path class="st9_marketing-campaign-1-97" d="M243.4,285c0.6-0.4,0.8-1.2,0.4-1.9c-0.4-0.6-1.1-1-1.8-1.3c-0.8-0.4-1.6-0.8-2.5-1.1c0.7-1,1.4-2.6,0.7-3.7&#10;&#9;&#9;s-1.8-0.1-2.2,0.7c0,0.1-0.1,0.1-0.1,0.2c-0.4,0.5-0.6,1-0.8,1.6c-0.4,1.2-1.1,2.2-1.9,3.2c-2.5,0.5-4.9,1.2-7.3,2&#10;&#9;&#9;c-0.7,0.2-1,1-0.8,1.7c0.1,0.4,0.5,0.7,0.8,0.8c1,0.6,1.9,1.4,2.7,2.3c1.7-0.3,3.4-0.5,5.1-0.4l1.2,0.4c0.9,0.4,1.9,0.4,2.8,0.1&#10;&#9;&#9;c0.7,0.3,1.6,0.5,2.4,0.4c1.3-0.2,1.4-1.2,0.9-2.2c0.9-0.5,1.2-1.6,0.7-2.5c0-0.1-0.1-0.1-0.1-0.2L243.4,285z"/>
	<path class="st8_marketing-campaign-1-97" d="M212.4,257.2c-3.3,4.2-3.8,10-4.1,15.1c-0.3,5.4-1.7,11.8-1,17.2c0.6,4.3,3.6,7.4,6.8,10.1&#10;&#9;&#9;c5.8,4.9,21.4-8,21.4-8l-1.4-10.9l-15.3,5.8c1.3-0.5,3.3-6.7,3.9-8c1.5-3.2,2.7-6.6,3.4-10c1.2-6.1-1.2-15.4-9.4-13.9&#10;&#9;&#9;C215,254.9,213.5,255.9,212.4,257.2z"/>
	<path class="st5_marketing-campaign-1-97" d="M263.9,328.6c-2-5.4-5.9-9.7-10.1-13.5c-5.1-4.6-10.5-8.9-16-13.1c-0.6-0.5-1.3,0.6-0.6,1.1&#10;&#9;&#9;c5.2,4,10.4,8.2,15.3,12.6c4.8,4.2,9.1,9,10.8,15.3c1.6,5.9,1.1,12.1,0.7,18.1c-0.4,6.6-0.9,13.2-1.4,19.8c-0.1,0.8,1.2,0.8,1.2,0&#10;&#9;&#9;c0.5-7.2,1-14.4,1.5-21.6C265.8,341.1,266,334.6,263.9,328.6z"/>
</g>
</svg>